<?xml version="1.0" encoding="UTF-8" standalone="no"?>
<svg version="1.1" id="svg2" viewBox="0 0 738.18398 907.17982">
  <path d="m 439.21917,908.17477 c -3.60228,-1.45354 -4.82697,-19.01207 -4.82697,-69.20357 l 0,-67.25586 54.18614,0 c 56.43495,0 69.43272,2.77829 87.72691,18.75183 6.6108,5.77222 8.68856,11.76191 8.68856,25.04698 0,15.10824 -1.60847,18.60587 -11.93897,25.96186 -19.72305,14.04407 -54.8549,22.91724 -90.73693,22.91724 l -32.4794,0 0,23.16948 c 0,22.75023 -0.91565,24.52756 -10.61934,20.61204 z m 109.64751,-63.56343 c 16.39477,-7.72763 26.48947,-23.24868 23.89221,-36.73513 -3.75167,-19.48093 -51.20794,-34.50614 -95.27174,-30.16423 l -26.67452,2.62843 -2.45627,23.97458 c -1.35094,13.18598 -1.36905,29.4106 -0.0401,36.05464 2.31591,11.57941 3.31787,12.14178 24.1733,13.56704 32.69526,2.23447 58.54951,-0.92221 76.37726,-9.32533 z m -289.21097,59.59739 c -3.71677,-0.97127 -6.75776,-3.49338 -6.75776,-5.60462 0,-2.11128 3.04099,-2.94237 6.75776,-1.84692 3.71678,1.09549 24.42395,2.4823 46.01594,3.08185 33.99414,0.94393 40.33705,0.11353 47.30435,-6.19161 14.94517,-13.52519 7.74308,-32.08437 -15.12331,-38.97154 -5.30967,-1.59923 -13.08159,-5.28017 -17.27095,-8.1799 -4.1893,-2.8997 -9.79338,-5.27221 -12.4534,-5.27221 -2.66004,0 -16.13202,-5.17348 -29.93774,-11.49662 -18.93375,-8.67184 -25.70379,-13.89725 -27.55345,-21.26684 -3.47014,-13.8262 6.98911,-27.81453 24.78362,-33.14587 18.63037,-5.5818 79.63635,-3.38982 86.11805,3.09428 7.83229,7.83518 2.64089,8.38623 -21.34905,2.26613 -13.91042,-3.54875 -29.16061,-4.84782 -39.21303,-3.34038 -18.50423,2.77489 -37.70442,17.91874 -35.79904,28.2359 1.2891,6.98039 34.3969,24.96832 67.24141,36.53322 40.17004,14.14427 50.53966,26.11648 39.87699,46.03992 -7.17628,13.40898 -27.13308,18.76507 -68.10819,18.27916 -20.77596,-0.24636 -40.81542,-1.24265 -44.5322,-2.21395 z m 53.09672,-150.5525 c -51.50262,-11.44911 -97.32802,-26.99556 -117.77818,-39.95676 -3.18581,-2.01914 -11.0055,-6.55291 -17.37711,-10.07506 C 143.15336,684.58439 88.250854,631.07081 63.153903,592.07638 51.846502,574.50744 32.787907,535.39202 32.787907,529.75393 c 0,-2.051 -3.475422,-10.92237 -7.72316,-19.71415 -4.247738,-8.7918 -7.723159,-19.326 -7.723159,-23.40931 0,-4.08332 -2.957082,-15.02792 -6.571289,-24.32139 C 5.5270078,448.82665 4.1719024,432.14516 4.0649748,379.765 3.9039472,300.9083 8.2031978,281.35642 41.962711,207.41261 62.431981,162.57859 111.3726,100.89077 149.29725,72.121506 c 14.76031,-11.197042 57.21737,-34.08574 63.24962,-34.098057 6.07412,-0.01155 24.84004,-9.275561 24.87464,-12.27851 0.0154,-1.438986 -5.61744,-7.229311 -12.52001,-12.867403 L 212.35136,2.6264676 256.75953,4.7945534 c 24.42448,1.192454 71.84322,3.3089843 105.37497,4.7034054 33.53176,1.3944112 60.46628,3.9674192 59.85449,5.7177982 -1.88649,5.39749 -131.37685,134.785233 -134.89208,134.785233 -1.81849,0 -3.30633,-11.29511 -3.30633,-25.10026 0,-13.80515 -0.96003,-25.100269 -2.13336,-25.100269 -4.43052,0 -70.34729,44.825069 -94.96509,64.578669 -53.66542,43.06175 -92.607864,105.19703 -110.200408,175.83209 -8.875841,35.63713 -9.653293,44.71585 -7.851248,91.6851 1.100048,28.67223 3.684565,56.4756 5.743404,61.78528 2.058802,5.30967 6.933038,20.08022 10.831581,32.82342 3.898533,12.74322 10.205452,28.86991 14.015365,35.83709 3.809916,6.96717 6.927086,14.26533 6.927086,16.21809 0,8.65237 27.51303,43.41852 59.65516,75.38174 58.99115,58.66285 117.57908,87.9849 196.24776,98.2179 l 24.06162,3.12985 -32.82343,0.0417 c -18.05288,0.0232 -36.29885,-0.73085 -40.54659,-1.67515 z m 71.43923,-45.68808 c -25.80439,-6.29361 -53.95975,-19.14784 -77.2316,-35.25982 -22.65913,-15.68774 -53.14263,-48.45776 -59.74512,-64.22645 -7.7522,-18.51454 -10.11761,-19.36628 -22.04572,-7.93844 -5.98788,5.73676 -10.88707,8.74189 -10.88707,6.67806 0,-6.97355 19.18375,-119.24381 22.25981,-130.27256 l 3.05138,-10.94024 52.99126,39.45944 c 29.1452,21.7027 52.99126,40.96194 52.99126,42.79832 0,1.83633 -6.38489,3.33883 -14.18864,3.33883 l -14.18868,0 8.3963,8.93743 c 4.61795,4.9156 8.39628,10.61758 8.39628,12.671 0,4.36726 43.23533,47.9 47.57269,47.9 1.61731,0 7.64891,3.46219 13.40355,7.69374 15.40689,11.32919 70.66111,24.23794 94.71787,22.12847 26.05088,-2.28435 62.83319,-12.93845 79.86226,-23.13237 46.82826,-28.03224 84.03419,-79.67883 95.12623,-132.0474 l 4.93791,-23.31325 -1.27875,36.685 c -0.70331,20.17676 -3.43844,41.89815 -6.07801,48.26975 -35.28696,85.178 -85.50538,131.88199 -162.21582,150.86351 -26.82686,6.63813 -88.0641,6.48324 -115.84739,-0.2931 z M 145.24819,516.7277 c -2.35634,-11.61344 -5.98086,-33.27929 -8.05449,-48.14638 -2.07363,-14.86708 -5.5607,-36.39121 -7.74906,-47.83141 -2.18836,-11.44021 -3.97882,-26.78323 -3.97882,-34.09567 0,-12.70548 0.50397,-13.18459 11.36138,-10.79987 10.72956,2.35661 11.51269,1.67569 14.08141,-12.24333 1.49601,-8.10627 5.94077,-20.79495 9.8773,-28.19702 3.93649,-7.40211 7.15728,-14.88273 7.15728,-16.62361 0,-7.88719 32.45921,-49.48741 56.51604,-72.43183 32.17731,-30.68941 43.20717,-38.56229 78.37674,-55.94353 68.11383,-33.66274 145.89218,-41.76847 218.9844,-22.82162 20.94026,5.42806 38.6524,11.51006 39.36035,13.51553 0.70798,2.00543 4.35756,3.64626 8.11024,3.64626 11.74782,0 54.03795,27.64165 82.24443,53.7565 46.39391,42.95364 70.41243,82.84383 85.85184,142.5834 8.08209,31.27196 5.53526,40.01434 -3.62765,12.45236 C 708.9531,318.92963 631.24623,245.7442 554.10117,224.34263 523.41528,215.82977 459.0607,214.13009 426.9405,220.98424 348.18099,237.79073 281.55302,293.52746 244.05752,373.97262 l -9.89935,21.2387 13.23147,1.19851 c 7.2773,0.65917 13.23146,2.15569 13.23146,3.32563 0,1.7961 -19.44467,26.52593 -37.43279,47.60718 -22.71046,26.61563 -35.95672,43.36936 -36.06013,45.60842 -0.0676,1.46374 -8.55428,12.1632 -18.8593,23.77664 l -18.73642,21.11527 -4.28427,-21.11527 z m 460.79123,-49.62216 c -2.01768,-1.87359 -27.64131,-16.18329 -56.94139,-31.79929 -48.32362,-25.75497 -52.35963,-28.69717 -43.44277,-31.66948 12.42076,-4.14022 12.31917,-6.57186 -0.78924,-18.8923 -19.73599,-18.54969 -39.3045,-26.21817 -66.90368,-26.21817 -48.49284,0 -94.84789,33.45557 -109.12925,78.76125 -3.75175,11.90189 -7.85345,21.63983 -9.11491,21.63983 -5.0745,0 2.69102,-53.31397 10.23291,-70.25391 12.54783,-28.18379 43.83083,-59.74336 73.27286,-73.92073 23.86955,-11.49398 27.89737,-12.20841 67.85325,-12.03499 40.19264,0.17455 43.82747,0.86781 67.57765,12.89111 13.80515,6.98873 29.66122,17.01412 35.23572,22.27862 l 10.13545,9.5718 8.0522,-10.23669 8.05217,-10.2367 1.76134,9.01243 c 2.62672,13.44069 14.02059,115.79383 14.00672,125.82524 -0.0115,9.09302 -3.65406,11.04393 -9.85903,5.28198 z" />
</svg>
